<svg xmlns="http://www.w3.org/2000/svg" viewBox="0 0 1600 900" role="img" aria-labelledby="title desc">
  <title id="title">Relight Studio cover</title>
  <desc id="desc">Creative lighting workspace illustration with WebGL canvas, point lights, inspector controls, and animation timeline.</desc>
  <defs>
    <linearGradient id="bg" x1="0" y1="0" x2="1" y2="1">
      <stop offset="0" stop-color="#111216"/>
      <stop offset=".5" stop-color="#1e1b2e"/>
      <stop offset="1" stop-color="#06111f"/>
    </linearGradient>
    <radialGradient id="glowA" cx=".42" cy=".36" r=".26">
      <stop offset="0" stop-color="#f472b6" stop-opacity=".85"/>
      <stop offset="1" stop-color="#f472b6" stop-opacity="0"/>
    </radialGradient>
    <radialGradient id="glowB" cx=".58" cy=".47" r=".33">
      <stop offset="0" stop-color="#38bdf8" stop-opacity=".75"/>
      <stop offset="1" stop-color="#38bdf8" stop-opacity="0"/>
    </radialGradient>
    <filter id="shadow" x="-20%" y="-20%" width="140%" height="140%">
      <feDropShadow dx="0" dy="24" stdDeviation="28" flood-color="#020617" flood-opacity=".42"/>
    </filter>
  </defs>
  <rect width="1600" height="900" fill="url(#bg)"/>
  <g filter="url(#shadow)">
    <rect x="116" y="92" width="1368" height="718" rx="38" fill="#17181d"/>
    <rect x="148" y="132" width="244" height="516" rx="28" fill="#22242b"/>
    <rect x="1208" y="132" width="244" height="516" rx="28" fill="#22242b"/>
    <rect x="416" y="132" width="768" height="516" rx="28" fill="#0b0d12"/>
    <rect x="416" y="132" width="768" height="516" rx="28" fill="url(#glowA)"/>
    <rect x="416" y="132" width="768" height="516" rx="28" fill="url(#glowB)"/>
    <path d="M615 510c57-138 128-226 218-263 84 65 135 149 154 252-128 63-252 67-372 11Z" fill="#f8fafc" opacity=".86"/>
    <path d="M670 498c40-91 92-150 158-177 58 44 93 101 106 171-88 42-176 44-264 6Z" fill="#111827" opacity=".52"/>
    <circle cx="606" cy="278" r="20" fill="#f472b6"/>
    <circle cx="992" cy="380" r="22" fill="#38bdf8"/>
    <circle cx="818" cy="214" r="16" fill="#facc15"/>
    <g stroke-linecap="round" stroke-width="5" fill="none">
      <path d="M606 278 768 388" stroke="#f472b6" opacity=".65"/>
      <path d="M992 380 825 404" stroke="#38bdf8" opacity=".65"/>
      <path d="M818 214 801 358" stroke="#facc15" opacity=".65"/>
    </g>
    <g font-family="Inter, Arial, sans-serif">
      <text x="188" y="196" fill="#f8fafc" font-size="24" font-weight="800">Sources</text>
      <rect x="188" y="232" width="164" height="14" rx="7" fill="#6366f1"/>
      <rect x="188" y="274" width="118" height="14" rx="7" fill="#64748b"/>
      <rect x="188" y="316" width="146" height="14" rx="7" fill="#64748b"/>
      <text x="1248" y="196" fill="#f8fafc" font-size="24" font-weight="800">Point light</text>
      <rect x="1248" y="244" width="150" height="12" rx="6" fill="#38bdf8"/>
      <rect x="1248" y="301" width="116" height="12" rx="6" fill="#f472b6"/>
      <rect x="1248" y="358" width="176" height="12" rx="6" fill="#facc15"/>
      <rect x="1248" y="428" width="136" height="48" rx="14" fill="#111827"/>
      <text x="1272" y="459" fill="#e2e8f0" font-size="17" font-weight="700">approximate</text>
    </g>
    <rect x="148" y="678" width="1304" height="86" rx="26" fill="#22242b"/>
    <rect x="205" y="716" width="1040" height="10" rx="5" fill="#3f4350"/>
    <rect x="205" y="716" width="462" height="10" rx="5" fill="#38bdf8"/>
    <g fill="#f8fafc">
      <circle cx="298" cy="721" r="13"/>
      <circle cx="537" cy="721" r="13"/>
      <circle cx="672" cy="721" r="13"/>
      <circle cx="942" cy="721" r="13"/>
    </g>
    <rect x="1276" y="704" width="112" height="34" rx="17" fill="#f8fafc"/>
  </g>
</svg>
